<svg xmlns="http://www.w3.org/2000/svg" viewBox="0 0 64 64"><title>Artboard-13</title><g id="Smart_TV" data-name="Smart TV"><path d="M61,3H3A3.0088,3.0088,0,0,0,0,6V35H26V23a3.9989,3.9989,0,0,1,4-4H44a3.9989,3.9989,0,0,1,4,4V35H64V6A3.0088,3.0088,0,0,0,61,3ZM30,17a6.0048,6.0048,0,0,0-6,6,1,1,0,0,1-2,0,8.0106,8.0106,0,0,1,8-8,1,1,0,0,1,0,2Zm0-4A10.0165,10.0165,0,0,0,20,23a1,1,0,0,1-2,0A12.01,12.01,0,0,1,30,11a1,1,0,0,1,0,2Zm0-4A14.0154,14.0154,0,0,0,16,23a1,1,0,0,1-2,0A16.0212,16.0212,0,0,1,30,7a1,1,0,0,1,0,2Z" style="fill:#1b1b1e"/><path d="M48,43h3v3H50a1,1,0,0,0,0,2h9a1,1,0,0,0,0-2H58V43h3a3.0088,3.0088,0,0,0,3-3V37H48Zm8,3H53V43h3Z" style="fill:#1b1b1e"/><path d="M0,40a3.0088,3.0088,0,0,0,3,3H6v3H5a1,1,0,0,0,0,2h9a1,1,0,0,0,0-2H13V43H26V37H0Zm11,6H8V43h3Zm0-7h4a1,1,0,0,1,0,2H11a1,1,0,0,1,0-2ZM8,39a1,1,0,1,1-1,1A1.0029,1.0029,0,0,1,8,39ZM5,39a1,1,0,1,1-1,1A1.0029,1.0029,0,0,1,5,39Z" style="fill:#1b1b1e"/><circle cx="37" cy="49" r="1" style="fill:#1b1b1e"/><path d="M44,21H30a2.0059,2.0059,0,0,0-2,2V59a2.0059,2.0059,0,0,0,2,2H44a2.0059,2.0059,0,0,0,2-2V23A2.0059,2.0059,0,0,0,44,21Zm-8,6h2a1,1,0,0,1,0,2H36a1,1,0,0,1,0-2Zm3.7,17.64a.9969.9969,0,0,1-.45-.11,5.0839,5.0839,0,0,0-4.5,0,.9973.9973,0,1,1-.9-1.78,7.0531,7.0531,0,0,1,6.3,0,.9925.9925,0,0,1,.44,1.34A1.0031,1.0031,0,0,1,39.7,44.64ZM40,49a3,3,0,1,1-3-3A3.0088,3.0088,0,0,1,40,49ZM36,31h2a1,1,0,0,1,0,2H36a1,1,0,0,1,0-2Zm0,4h2a1,1,0,0,1,0,2H36a1,1,0,0,1,0-2ZM31,23h2a1,1,0,0,1,0,2H31a1,1,0,0,1,0-2Zm0,4h2a1,1,0,0,1,0,2H31a1,1,0,0,1,0-2Zm0,4h2a1,1,0,0,1,0,2H31a1,1,0,0,1,0-2Zm0,4h2a1,1,0,0,1,0,2H31a1,1,0,0,1,0-2Zm0,4h2a1,1,0,0,1,0,2H31a1,1,0,0,1,0-2Zm-.25,6.85a.9973.9973,0,1,1,1.78.9,5.0409,5.0409,0,0,0,0,4.5.9982.9982,0,0,1-.44,1.34,1.064,1.064,0,0,1-.45.11.9811.9811,0,0,1-.89-.55,6.99,6.99,0,0,1,0-6.3ZM33,59H31a1,1,0,0,1,0-2h2a1,1,0,0,1,0,2Zm.85-3.75a.9973.9973,0,0,1,.9-1.78,5.0839,5.0839,0,0,0,4.5,0,.9973.9973,0,1,1,.9,1.78,6.99,6.99,0,0,1-6.3,0ZM43,59H41a1,1,0,0,1,0-2h2a1,1,0,0,1,0,2Zm.25-6.85a.9811.9811,0,0,1-.89.55,1.064,1.064,0,0,1-.45-.11.9982.9982,0,0,1-.44-1.34,5.0409,5.0409,0,0,0,0-4.5.9973.9973,0,1,1,1.78-.9,6.99,6.99,0,0,1,0,6.3ZM43,41H41a1,1,0,0,1,0-2h2a1,1,0,0,1,0,2Zm0-4H41a1,1,0,0,1,0-2h2a1,1,0,0,1,0,2Zm0-4H41a1,1,0,0,1,0-2h2a1,1,0,0,1,0,2Zm0-4H41a1,1,0,0,1,0-2h2a1,1,0,0,1,0,2Zm0-4H41a1,1,0,0,1,0-2h2a1,1,0,0,1,0,2Z" style="fill:#1b1b1e"/></g></svg>